/* XPM */
static char * gravel_xpm[] = {
"64 64 4 1",
" 	c #B1B1B1",
".	c #7F7F7F",
"+	c #5C5C5C",
"@	c #383838",
"                ........++++++++++++            ....++++    ....",
"                ........++++++++++++            ....++++    ....",
"                ........++++++++++++            ....++++    ....",
"                ........++++++++++++            ....++++    ....",
"        ........@@@@++++        ++++................@@@@........",
"        ........@@@@++++        ++++................@@@@........",
"        ........@@@@++++        ++++................@@@@........",
"        ........@@@@++++        ++++................@@@@........",
"++++........@@@@++++        ....@@@@@@@@........@@@@++++++++....",
"++++........@@@@++++        ....@@@@@@@@........@@@@++++++++....",
"++++........@@@@++++        ....@@@@@@@@........@@@@++++++++....",
"++++........@@@@++++        ....@@@@@@@@........@@@@++++++++....",
"++++@@@@@@@@++++    ............@@@@++++@@@@@@@@++++        ++++",
"++++@@@@@@@@++++    ............@@@@++++@@@@@@@@++++        ++++",
"++++@@@@@@@@++++    ............@@@@++++@@@@@@@@++++        ++++",
"++++@@@@@@@@++++    ............@@@@++++@@@@@@@@++++        ++++",
"        ++++++++    ........@@@@++++            ++++........++++",
"        ++++++++    ........@@@@++++            ++++........++++",
"        ++++++++    ........@@@@++++            ++++........++++",
"        ++++++++    ........@@@@++++            ++++........++++",
"............++++............@@@@        ............++++@@@@@@@@",
"............++++............@@@@        ............++++@@@@@@@@",
"............++++............@@@@        ............++++@@@@@@@@",
"............++++............@@@@        ............++++@@@@@@@@",
"............++++++++@@@@@@@@++++++++....................++++++++",
"............++++++++@@@@@@@@++++++++....................++++++++",
"............++++++++@@@@@@@@++++++++....................++++++++",
"............++++++++@@@@@@@@++++++++....................++++++++",
"........@@@@++++        ++++++++++++++++@@@@........@@@@++++    ",
"........@@@@++++        ++++++++++++++++@@@@........@@@@++++    ",
"........@@@@++++        ++++++++++++++++@@@@........@@@@++++    ",
"........@@@@++++        ++++++++++++++++@@@@........@@@@++++    ",
"....@@@@++++        ....++++        ....++++@@@@@@@@@@@@        ",
"....@@@@++++        ....++++        ....++++@@@@@@@@@@@@        ",
"....@@@@++++        ....++++        ....++++@@@@@@@@@@@@        ",
"....@@@@++++        ....++++        ....++++@@@@@@@@@@@@        ",
"....++++        ....@@@@    ....    ........++++++++    ........",
"....++++        ....@@@@    ....    ........++++++++    ........",
"....++++        ....@@@@    ....    ........++++++++    ........",
"....++++        ....@@@@    ....    ........++++++++    ........",
"++++    ............@@@@    ................@@@@++++++++........",
"++++    ............@@@@    ................@@@@++++++++........",
"++++    ............@@@@    ................@@@@++++++++........",
"++++    ............@@@@    ................@@@@++++++++........",
"++++++++............@@@@................@@@@++++    ++++++++@@@@",
"++++++++............@@@@................@@@@++++    ++++++++@@@@",
"++++++++............@@@@................@@@@++++    ++++++++@@@@",
"++++++++............@@@@................@@@@++++    ++++++++@@@@",
"        @@@@@@@@@@@@@@@@++++....@@@@@@@@        ........++++++++",
"        @@@@@@@@@@@@@@@@++++....@@@@@@@@        ........++++++++",
"        @@@@@@@@@@@@@@@@++++....@@@@@@@@        ........++++++++",
"        @@@@@@@@@@@@@@@@++++....@@@@@@@@        ........++++++++",
"    ....++++            ++++@@@@++++        ................@@@@",
"    ....++++            ++++@@@@++++        ................@@@@",
"    ....++++            ++++@@@@++++        ................@@@@",
"    ....++++            ++++@@@@++++        ................@@@@",
"........++++    ............++++++++++++................@@@@@@@@",
"........++++    ............++++++++++++................@@@@@@@@",
"........++++    ............++++++++++++................@@@@@@@@",
"........++++    ............++++++++++++................@@@@@@@@",
"............++++@@@@@@@@@@@@++++    ....++++++++@@@@@@@@++++++++",
"............++++@@@@@@@@@@@@++++    ....++++++++@@@@@@@@++++++++",
"............++++@@@@@@@@@@@@++++    ....++++++++@@@@@@@@++++++++",
"............++++@@@@@@@@@@@@++++    ....++++++++@@@@@@@@++++++++"};
