/* XPM */
static char * wood_xpm[] = {
"64 64 5 1",
" 	c #B5AA8F",
".	c #999177",
"+	c #ADA288",
"@	c #6D6654",
"#	c #605949",
"    ................        ++++....                        @@@@",
"    ................        ++++....                        @@@@",
"    ................        ++++....                        @@@@",
"    ................        ++++....                        @@@@",
"        ++++++++++++++++....................++++....++++    ####",
"        ++++++++++++++++....................++++....++++    ####",
"        ++++++++++++++++....................++++....++++    ####",
"        ++++++++++++++++....................++++....++++    ####",
"        ................++++++++            ++++++++        ####",
"        ................++++++++            ++++++++        ####",
"        ................++++++++            ++++++++        ####",
"        ................++++++++            ++++++++        ####",
"############@@@@@@@@@@@@@@@@@@@@@@@@@@@@################@@@@@@@@",
"############@@@@@@@@@@@@@@@@@@@@@@@@@@@@################@@@@@@@@",
"############@@@@@@@@@@@@@@@@@@@@@@@@@@@@################@@@@@@@@",
"############@@@@@@@@@@@@@@@@@@@@@@@@@@@@################@@@@@@@@",
"    ................        ####    ............++++++++++++    ",
"    ................        ####    ............++++++++++++    ",
"    ................        ####    ............++++++++++++    ",
"    ................        ####    ............++++++++++++    ",
"........++++++++++++++++    ####++++++++++++++++................",
"........++++++++++++++++    ####++++++++++++++++................",
"........++++++++++++++++    ####++++++++++++++++................",
"........++++++++++++++++    ####++++++++++++++++................",
"            ++++            @@@@........                        ",
"            ++++            @@@@........                        ",
"            ++++            @@@@........                        ",
"            ++++            @@@@........                        ",
"@@@@@@@@####################@@@@@@@@@@@@################@@@@@@@@",
"@@@@@@@@####################@@@@@@@@@@@@################@@@@@@@@",
"@@@@@@@@####################@@@@@@@@@@@@################@@@@@@@@",
"@@@@@@@@####################@@@@@@@@@@@@################@@@@@@@@",
"                        ....        ++++++++++++            @@@@",
"                        ....        ++++++++++++            @@@@",
"                        ....        ++++++++++++            @@@@",
"                        ....        ++++++++++++            @@@@",
"....................    ++++++++............        ........####",
"....................    ++++++++............        ........####",
"....................    ++++++++............        ........####",
"....................    ++++++++............        ........####",
"    ++++++++++++        ................++++++++++++++++++++@@@@",
"    ++++++++++++        ................++++++++++++++++++++@@@@",
"    ++++++++++++        ................++++++++++++++++++++@@@@",
"    ++++++++++++        ................++++++++++++++++++++@@@@",
"@@@@####@@@@@@@@############@@@@@@@@@@@@@@@@@@@@############@@@@",
"@@@@####@@@@@@@@############@@@@@@@@@@@@@@@@@@@@############@@@@",
"@@@@####@@@@@@@@############@@@@@@@@@@@@@@@@@@@@############@@@@",
"@@@@####@@@@@@@@############@@@@@@@@@@@@@@@@@@@@############@@@@",
"                    ....    @@@@................++++++++        ",
"                    ....    @@@@................++++++++        ",
"                    ....    @@@@................++++++++        ",
"                    ....    @@@@................++++++++        ",
"++++........                ####    ++++++++................++++",
"++++........                ####    ++++++++................++++",
"++++........                ####    ++++++++................++++",
"++++........                ####    ++++++++................++++",
"        ............        @@@@        ....++++                ",
"        ............        @@@@        ....++++                ",
"        ............        @@@@        ....++++                ",
"        ............        @@@@        ....++++                ",
"@@@@@@@@@@@@####################@@@@@@@@@@@@################@@@@",
"@@@@@@@@@@@@####################@@@@@@@@@@@@################@@@@",
"@@@@@@@@@@@@####################@@@@@@@@@@@@################@@@@",
"@@@@@@@@@@@@####################@@@@@@@@@@@@################@@@@"};
